<svg width="24" height="24" viewBox="0 0 24 24" fill="none" xmlns="http://www.w3.org/2000/svg">
  <g stroke-width="2" stroke-linecap="round" stroke-linejoin="round">
    <path d="M20 10c0 6-8 12-8 12s-8-6-8-12a8 8 0 0 1 16 0Z" fill="#c89148" />
    <g transform="translate(12, 10) scale(0.3) translate(-12, -12)" stroke="#FFFFFF">
      <!-- Coffee Mug Icon (Lucide) -->
      <path d="M10 2v2" />
      <path d="M14 2v2" />
      <path d="M16 8a1 1 0 0 1 1 1v8a4 4 0 0 1-4 4H7a4 4 0 0 1-4-4V9a1 1 0 0 1 1-1h14a4 4 0 1 1 0 8h-1" />
      <path d="M6 2v2" />
    </g>
  </g>
</svg>