<svg width="24" height="24" viewBox="0 0 24 24" fill="none" xmlns="http://www.w3.org/2000/svg">
  <g stroke="#d1596f" stroke-width="2" stroke-linecap="round" stroke-linejoin="round">
    <path d="M20 10c0 6-8 12-8 12s-8-6-8-12a8 8 0 0 1 16 0Z" />
    <g transform="translate(12, 10) scale(0.3) translate(-12, -12)">
      <!-- Utensils Icon (Lucide) -->
      <path d="M3 2v7c0 1.1.9 2 2 2h4a2 2 0 0 0 2-2V2" />
      <path d="M7 2v20" />
      <path d="M21 15V2a5 5 0 0 0-5 5v6c0 1.1.9 2 2 2h3Zm0 0v7" />
    </g>
  </g>
</svg>